<svg width="272" height="272" viewBox="0 0 272 272" fill="none" xmlns="http://www.w3.org/2000/svg">
<g clip-path="url(#clip0)">
<path fill-rule="evenodd" clip-rule="evenodd" d="M250.364 172.261L206.594 232.098L136.05 254.78L65.6781 231.643L22.3578 171.525L22.636 97.3876L66.4064 37.5501L136.95 14.868L207.322 38.0051L250.642 98.1238L250.364 172.261V172.261Z" stroke="black" stroke-width="2"/>
<path fill-rule="evenodd" clip-rule="evenodd" d="M229.534 191.433L173.627 238.334L100.637 238.323L44.716 191.405L32.0307 119.535L68.5163 56.3395L137.101 31.39L205.693 56.3601L242.198 119.566L229.534 191.433Z" stroke="black" stroke-width="2"/>
<path fill-rule="evenodd" clip-rule="evenodd" d="M226 135L199.932 195.104L137 220L74.0675 195.104L48 135L74.0675 74.8959L137 50L199.932 74.8959L226 135Z" stroke="black" stroke-width="2"/>
<path fill-rule="evenodd" clip-rule="evenodd" d="M199.816 145.967L164.795 189.606L108.777 189.448L73.9458 145.612L86.5293 91.107L137.052 66.9764L187.47 91.3912L199.816 145.967Z" stroke="black" stroke-width="2"/>
<path fill-rule="evenodd" clip-rule="evenodd" d="M176.56 154.573L137.188 177.304L97.8168 154.573L97.8168 109.111L137.188 86.3797L176.56 109.111L176.56 154.573Z" stroke="black" stroke-width="2"/>
<path fill-rule="evenodd" clip-rule="evenodd" d="M150.978 150.498L122.74 150.498L114.015 123.643L136.859 107.046L159.704 123.643L150.978 150.498Z" stroke="black" stroke-width="2"/>
<path fill-rule="evenodd" clip-rule="evenodd" d="M147.615 139.223L126.171 139.223L136.893 120.652L147.615 139.223Z" stroke="black" stroke-width="2"/>
</g>
<defs>
<clipPath id="clip0">
<rect width="272" height="272" fill="white"/>
</clipPath>
</defs>
</svg>
